IKResults
version=1
nRows=9
nColumns=63
inDegrees=yes

Units are S.I. units (second, meters, Newtons, ...)
If the header above contains a line with 'inDegrees', this indicates whether rotational values are in degrees (yes) or radians (no).

endheader
time	pelvis_tilt	pelvis_list	pelvis_rotation	pelvis_tx	pelvis_ty	pelvis_tz	hip_flexion_r	hip_adduction_r	hip_rotation_r	knee_angle_r	knee_angle_r_beta	ankle_angle_r	subtalar_angle_r	mtp_angle_r	hip_flexion_l	hip_adduction_l	hip_rotation_l	knee_angle_l	knee_angle_l_beta	ankle_angle_l	subtalar_angle_l	mtp_angle_l	L5_S1_Flex_Ext	L5_S1_Lat_Bending	L5_S1_axial_rotation	L4_L5_Flex_Ext	L4_L5_Lat_Bending	L4_L5_axial_rotation	L3_L4_Flex_Ext	L3_L4_Lat_Bending	L3_L4_axial_rotation	L2_L3_Flex_Ext	L2_L3_Lat_Bending	L2_L3_axial_rotation	L1_L2_Flex_Ext	L1_L2_Lat_Bending	L1_L2_axial_rotation	L1_T12_Flex_Ext	L1_T12_Lat_Bending	L1_T12_axial_rotation	Abs_r3	Abs_r2	Abs_r1	Abs_t1	Abs_t2	neck_flexion	neck_bending	neck_rotation	arm_flex_r	arm_add_r	arm_rot_r	elbow_flex_r	pro_sup_r	wrist_flex_r	wrist_dev_r	arm_flex_l	arm_add_l	arm_rot_l	elbow_flex_l	pro_sup_l	wrist_flex_l	wrist_dev_l
      0.03333333	     -6.43937465	     -4.33336825	     16.39308626	      0.03310737	      0.98339954	     -0.87807088	      9.78740272	     -2.69581548	     -5.74611416	      6.45345351	      0.11263401	     18.04573301	      7.91220252	      0.00000000	      2.90668756	     -7.69264870	    -31.60542146	      8.28432084	      0.14458867	     12.72678697	     -3.14029526	      0.00000000	      1.62167956	      0.37424806	      0.40243166	      3.01162111	      0.49774993	      0.42758364	      2.66425735	      0.90994674	      0.42758364	      1.85341757	      0.90994674	      0.35212770	      1.50589164	      0.76316665	      0.32697572	      0.92662770	      0.57971025	      0.30182374	     11.58349493	      4.23356895	      2.23820416	      0.00000000	      0.00000000	     -2.30623156	      2.86381301	     -5.16320788	     -9.08611882	    -18.38104741	     29.95490014	     33.14579186	     89.99559364	      0.00000000	      0.00000000	    -12.84390839	    -11.06402920	     13.09613705	     22.68517264	     89.99559364	      0.00000000	      0.00000000
      0.06666667	     -6.41521486	     -4.30944104	     16.36249311	      0.03265350	      0.98348633	     -0.87772586	      9.79450471	     -2.69777460	     -5.74263159	      6.45474807	      0.11265661	     18.04157044	      7.91275890	      0.00000000	      2.90535652	     -7.68663830	    -31.60232347	      8.28803109	      0.14465343	     12.72442390	     -3.14193217	      0.00000000	      1.62164521	      0.37523870	      0.39670165	      3.01155732	      0.49906748	      0.42149550	      2.66420092	      0.91235539	      0.42149550	      1.85337831	      0.91235539	      0.34711394	      1.50585974	      0.76518677	      0.32232009	      0.92660807	      0.58124475	      0.29752624	     11.58324958	      4.24477527	      2.20633557	      0.00000000	      0.00000000	     -2.30889500	      2.86621283	     -5.16633114	     -9.11804727	    -18.38154790	     29.95937153	     33.13901429	     89.99559364	      0.00000000	      0.00000000	    -12.81978471	    -11.06075890	     13.09584469	     22.69808604	     89.99559364	      0.00000000	      0.00000000
      0.10000000	     -6.36627534	     -4.26610804	     16.30746937	      0.03170770	      0.98365161	     -0.87708474	      9.80841240	     -2.70221116	     -5.73153538	      6.45430937	      0.11264895	     18.02595940	      7.91863469	      0.00000000	      2.90719898	     -7.67374485	    -31.60381140	      8.29171959	      0.14471781	     12.71674095	     -3.14570833	      0.00000000	      1.62124356	      0.37719058	      0.38469941	      3.01081142	      0.50166347	      0.40874313	      2.66354105	      0.91710117	      0.40874313	      1.85291927	      0.91710117	      0.33661199	      1.50548677	      0.76916703	      0.31256827	      0.92637857	      0.58426820	      0.28852456	     11.58038066	      4.26685525	      2.13958272	      0.00000000	      0.00000000	     -2.31495142	      2.87310665	     -5.17578343	     -9.18012254	    -18.38316508	     29.96653654	     33.12528628	     89.99559364	      0.00000000	      0.00000000	    -12.77171817	    -11.04710408	     13.09639092	     22.72760742	     89.99559364	      0.00000000	      0.00000000
      0.13333333	     -6.28481275	     -4.30514781	     16.26166083	      0.03023085	      0.98399820	     -0.87626849	      9.73373005	     -2.60984367	     -5.57069439	      6.18611068	      0.10796800	     17.53360891	      8.06889455	      0.00000000	      2.91449813	     -7.72696756	    -31.80474846	      8.18359181	      0.14283062	     12.43947156	     -3.26049697	      0.00000000	      1.62270631	      0.39008038	      0.34385960	      3.01352788	      0.51880691	      0.36535083	      2.66594419	      0.94844144	      0.36535083	      1.85459104	      0.94844144	      0.30087715	      1.50684508	      0.79545191	      0.27938593	      0.92721438	      0.60423451	      0.25789470	     11.59082887	      4.41266727	      1.91244396	      0.00000000	      0.00000000	     -2.37783883	      2.99192144	     -5.49003040	     -9.22808545	    -18.39836318	     29.82343220	     33.05796379	     89.99559364	      0.00000000	      0.00000000	    -12.87210541	    -11.04476601	     13.18342415	     23.16997836	     89.99559364	      0.00000000	      0.00000000
      0.16666667	     -6.19362454	     -4.21589260	     16.14328323	      0.02846317	      0.98428367	     -0.87496066	      9.75691115	     -2.61791750	     -5.55630932	      6.18334009	      0.10791964	     17.51548786	      8.07326283	      0.00000000	      2.91492180	     -7.69956677	    -31.80171382	      8.19027082	      0.14294719	     12.43509064	     -3.26135865	      0.00000000	      1.62216535	      0.39348246	      0.32112554	      3.01252327	      0.52333167	      0.34119589	      2.66505546	      0.95671325	      0.34119589	      1.85397278	      0.95671325	      0.28098485	      1.50634275	      0.80238943	      0.26091450	      0.92690528	      0.60950433	      0.24084416	     11.58696489	      4.45115226	      1.78600393	      0.00000000	      0.00000000	     -2.38810853	      3.00058994	     -5.50487794	     -9.36139400	    -18.39860595	     29.83789794	     33.03149510	     89.99559364	      0.00000000	      0.00000000	    -12.78205904	    -11.02410621	     13.18291028	     23.21803363	     89.99559364	      0.00000000	      0.00000000
      0.20000000	     -6.08572606	     -4.15297263	     16.12374598	      0.02568616	      0.98468925	     -0.87392689	      9.77592871	     -2.65853821	     -5.29866638	      6.07873093	      0.10609387	     17.12798621	      8.26082636	      0.00000000	      2.97671620	     -7.64550030	    -31.98646391	      8.12379503	      0.14178697	     12.30856363	     -3.34096309	      0.00000000	      1.61573765	      0.40485469	      0.25299512	      3.00058638	      0.53845674	      0.26880732	      2.65449538	      0.98436370	      0.26880732	      1.84662656	      0.98436370	      0.22137073	      1.50037398	      0.82557969	      0.20555854	      0.92323249	      0.62711992	      0.18974634	     11.54105244	      4.57979727	      1.40708298	      0.00000000	      0.00000000	     -2.48496396	      3.11516681	     -5.74569918	     -9.43376561	    -18.49876229	     29.70940666	     33.02083474	     89.99559364	      0.00000000	      0.00000000	    -12.71724270	    -10.91182116	     13.23985679	     23.53102794	     89.99559364	      0.00000000	      0.00000000
      0.23333333	     -5.93013138	     -4.17024658	     15.93048736	      0.02389051	      0.98520595	     -0.87208774	      9.44345359	     -2.45491974	     -5.01068570	      5.28116574	      0.09217373	     16.31188097	      8.29748914	      0.00000000	      2.84725781	     -7.71318382	    -32.26562435	      7.85538199	      0.13710228	     11.97251369	     -3.32253887	      0.00000000	      1.62781822	      0.41901803	      0.20932028	      3.02302121	      0.55729398	      0.22240280	      2.67434255	      1.01880044	      0.22240280	      1.86043344	      1.01880044	      0.18315524	      1.51159199	      0.85446157	      0.17007273	      0.93013533	      0.64905893	      0.15699021	     11.62734273	      4.74001578	      1.16417659	      0.00000000	      0.00000000	     -2.67181979	      3.22254156	     -6.52627072	     -9.86226952	    -18.39737221	     29.06194627	     33.02526931	     89.99559364	      0.00000000	      0.00000000	    -13.05025515	    -11.05912412	     13.43073155	     24.49712369	     89.99559364	      0.00000000	      0.00000000
      0.26666667	     -5.79624946	     -4.03922007	     15.78131031	      0.02070112	      0.98561714	     -0.87015784	      9.49041358	     -2.49401928	     -4.74072515	      5.22514398	      0.09119597	     16.02100121	      8.41835026	      0.00000000	      2.88224708	     -7.65054266	    -32.41100530	      7.81762026	      0.13644321	     11.93673564	     -3.35549247	      0.00000000	      1.62196640	      0.42637606	      0.13177429	      3.01215380	      0.56708016	      0.14001019	      2.66472859	      1.03669075	      0.14001019	      1.85374540	      1.03669075	      0.11530251	      1.50615800	      0.86946606	      0.10706661	      0.92679160	      0.66045652	      0.09883072	     11.58554378	      4.82325128	      0.73288909	      0.00000000	      0.00000000	     -2.79416523	      3.29731989	     -6.74118610	    -10.03411879	    -18.44604158	     28.84830261	     33.06131614	     89.99559364	      0.00000000	      0.00000000	    -12.97290237	    -10.98194718	     13.48826144	     24.68045279	     89.99559364	      0.00000000	      0.00000000
      0.30000000	     -6.06454011	     -4.07723183	     15.39531218	      0.01876524	      0.98555596	     -0.86770705	      9.64728202	     -2.28637229	     -2.71076526	      4.45403666	      0.07773760	     14.99788004	      6.24038218	      0.00000000	      3.14328990	     -7.68478213	    -33.51490022	      7.54193256	      0.13163156	     11.94537288	     -2.13634267	      0.00000000	      1.72075066	      0.43672970	      0.16835032	      3.19560605	      0.58085050	      0.17887222	      2.82702126	      1.06186460	      0.17887222	      1.96664593	      1.06186460	      0.14730653	      1.59788906	      0.89057921	      0.13678464	      0.98323693	      0.67649431	      0.12626274	     12.29114987	      4.94037375	      0.93631399	      0.00000000	      0.00000000	     -3.20651736	      3.23701270	     -7.84053404	    -12.07691981	    -17.40015851	     22.31668456	     33.71038572	     89.99559364	      0.00000000	      0.00000000	    -13.08148629	    -11.26105059	     14.74471025	     25.24264186	     89.99559364	      0.00000000	      0.00000000
